<mxfile host="Electron" modified="2024-02-05T19:03:24.028Z" agent="Mozilla/5.0 (X11; Linux x86_64) AppleWebKit/537.36 (KHTML, like Gecko) draw.io/23.0.2 Chrome/120.0.6099.109 Electron/28.1.0 Safari/537.36" etag="ngPDDb6kt75ZgtAFtRQ9" version="23.0.2" type="device">
  <diagram id="C5RBs43oDa-KdzZeNtuy" name="Page-1">
    <mxGraphModel dx="2074" dy="1203" grid="1" gridSize="10" guides="1" tooltips="1" connect="1" arrows="1" fold="1" page="1" pageScale="1" pageWidth="827" pageHeight="1169" math="0" shadow="0">
      <root>
        <mxCell id="WIyWlLk6GJQsqaUBKTNV-0" />
        <mxCell id="WIyWlLk6GJQsqaUBKTNV-1" parent="WIyWlLk6GJQsqaUBKTNV-0" />
        <mxCell id="MmrI5GjskiHCByYGOdrg-1" value="Launch Mode" style="text;strokeColor=#ae4132;align=center;fillColor=#fad9d5;html=1;verticalAlign=middle;whiteSpace=wrap;rounded=1;glass=0;fontSize=13;fontFamily=Courier New;fontStyle=1" parent="WIyWlLk6GJQsqaUBKTNV-1" vertex="1">
          <mxGeometry x="40" y="40" width="120" height="40" as="geometry" />
        </mxCell>
        <mxCell id="MmrI5GjskiHCByYGOdrg-2" value="$ mdb launch -n [nprocs] [binary]" style="text;strokeColor=none;align=left;fillColor=none;html=1;verticalAlign=middle;whiteSpace=wrap;rounded=0;fontSize=13;fontFamily=Courier New;" parent="WIyWlLk6GJQsqaUBKTNV-1" vertex="1">
          <mxGeometry x="170" y="40" width="320" height="40" as="geometry" />
        </mxCell>
        <mxCell id="MmrI5GjskiHCByYGOdrg-23" style="edgeStyle=orthogonalEdgeStyle;rounded=0;orthogonalLoop=1;jettySize=auto;html=1;entryX=0;entryY=0.5;entryDx=0;entryDy=0;fontSize=13;fontFamily=Courier New;" parent="WIyWlLk6GJQsqaUBKTNV-1" source="MmrI5GjskiHCByYGOdrg-7" target="MmrI5GjskiHCByYGOdrg-9" edge="1">
          <mxGeometry relative="1" as="geometry">
            <Array as="points">
              <mxPoint x="240" y="280" />
              <mxPoint x="240" y="130" />
            </Array>
          </mxGeometry>
        </mxCell>
        <mxCell id="MmrI5GjskiHCByYGOdrg-26" style="edgeStyle=orthogonalEdgeStyle;rounded=0;orthogonalLoop=1;jettySize=auto;html=1;exitX=1;exitY=0.5;exitDx=0;exitDy=0;entryX=0;entryY=0.5;entryDx=0;entryDy=0;fontSize=13;fontFamily=Courier New;" parent="WIyWlLk6GJQsqaUBKTNV-1" source="MmrI5GjskiHCByYGOdrg-7" target="MmrI5GjskiHCByYGOdrg-8" edge="1">
          <mxGeometry relative="1" as="geometry">
            <Array as="points">
              <mxPoint x="240" y="280" />
              <mxPoint x="240" y="480" />
            </Array>
          </mxGeometry>
        </mxCell>
        <mxCell id="MmrI5GjskiHCByYGOdrg-7" value="mdb launch" style="rounded=1;whiteSpace=wrap;html=1;fillColor=#dae8fc;strokeColor=#6c8ebf;fontSize=13;fontFamily=Courier New;" parent="WIyWlLk6GJQsqaUBKTNV-1" vertex="1">
          <mxGeometry x="40" y="250" width="120" height="60" as="geometry" />
        </mxCell>
        <mxCell id="DuDHuZvFWw33TkAiY8Pj-7" style="edgeStyle=orthogonalEdgeStyle;rounded=0;orthogonalLoop=1;jettySize=auto;html=1;exitX=1;exitY=0.75;exitDx=0;exitDy=0;entryX=1;entryY=0.75;entryDx=0;entryDy=0;fontSize=13;fontFamily=Courier New;" edge="1" parent="WIyWlLk6GJQsqaUBKTNV-1" source="MmrI5GjskiHCByYGOdrg-8" target="MmrI5GjskiHCByYGOdrg-13">
          <mxGeometry relative="1" as="geometry">
            <Array as="points">
              <mxPoint x="870" y="495" />
              <mxPoint x="870" y="355" />
            </Array>
          </mxGeometry>
        </mxCell>
        <mxCell id="MmrI5GjskiHCByYGOdrg-8" value="mdb exchange server" style="rounded=1;whiteSpace=wrap;html=1;fillColor=#d5e8d4;strokeColor=#82b366;fontSize=13;fontFamily=Courier New;" parent="WIyWlLk6GJQsqaUBKTNV-1" vertex="1">
          <mxGeometry x="550" y="450" width="200" height="60" as="geometry" />
        </mxCell>
        <mxCell id="MmrI5GjskiHCByYGOdrg-32" style="edgeStyle=orthogonalEdgeStyle;rounded=0;orthogonalLoop=1;jettySize=auto;html=1;exitX=1;exitY=0.5;exitDx=0;exitDy=0;entryX=0;entryY=0.5;entryDx=0;entryDy=0;fontSize=13;fontFamily=Courier New;" parent="WIyWlLk6GJQsqaUBKTNV-1" source="MmrI5GjskiHCByYGOdrg-9" target="MmrI5GjskiHCByYGOdrg-13" edge="1">
          <mxGeometry relative="1" as="geometry" />
        </mxCell>
        <mxCell id="MmrI5GjskiHCByYGOdrg-33" style="edgeStyle=orthogonalEdgeStyle;rounded=0;orthogonalLoop=1;jettySize=auto;html=1;exitX=1;exitY=0.5;exitDx=0;exitDy=0;entryX=0;entryY=0.5;entryDx=0;entryDy=0;fontSize=13;fontFamily=Courier New;" parent="WIyWlLk6GJQsqaUBKTNV-1" source="MmrI5GjskiHCByYGOdrg-9" target="MmrI5GjskiHCByYGOdrg-11" edge="1">
          <mxGeometry relative="1" as="geometry" />
        </mxCell>
        <mxCell id="MmrI5GjskiHCByYGOdrg-34" style="edgeStyle=orthogonalEdgeStyle;rounded=0;orthogonalLoop=1;jettySize=auto;html=1;exitX=1;exitY=0.5;exitDx=0;exitDy=0;entryX=0;entryY=0.5;entryDx=0;entryDy=0;fontSize=13;fontFamily=Courier New;" parent="WIyWlLk6GJQsqaUBKTNV-1" source="MmrI5GjskiHCByYGOdrg-9" target="MmrI5GjskiHCByYGOdrg-10" edge="1">
          <mxGeometry relative="1" as="geometry" />
        </mxCell>
        <mxCell id="MmrI5GjskiHCByYGOdrg-9" value="mpirun -n [nprocs] [binary]" style="rounded=1;whiteSpace=wrap;html=1;fillColor=#d5e8d4;strokeColor=#82b366;fontSize=13;fontFamily=Courier New;" parent="WIyWlLk6GJQsqaUBKTNV-1" vertex="1">
          <mxGeometry x="290" y="100" width="200" height="60" as="geometry" />
        </mxCell>
        <mxCell id="MmrI5GjskiHCByYGOdrg-16" value="Attach Mode" style="text;strokeColor=#ae4132;align=center;fillColor=#fad9d5;html=1;verticalAlign=middle;whiteSpace=wrap;rounded=1;glass=0;fontSize=13;fontFamily=Courier New;fontStyle=1" parent="WIyWlLk6GJQsqaUBKTNV-1" vertex="1">
          <mxGeometry x="40" y="560" width="120" height="40" as="geometry" />
        </mxCell>
        <mxCell id="MmrI5GjskiHCByYGOdrg-17" value="$ mdb attach --host [hostname]" style="text;strokeColor=none;align=left;fillColor=none;html=1;verticalAlign=middle;whiteSpace=wrap;rounded=0;fontSize=13;fontFamily=Courier New;" parent="WIyWlLk6GJQsqaUBKTNV-1" vertex="1">
          <mxGeometry x="170" y="560" width="320" height="40" as="geometry" />
        </mxCell>
        <mxCell id="MmrI5GjskiHCByYGOdrg-36" value="1a" style="rounded=1;whiteSpace=wrap;html=1;fillColor=#fad9d5;strokeColor=#ae4132;fontSize=13;fontFamily=Courier New;" parent="WIyWlLk6GJQsqaUBKTNV-1" vertex="1">
          <mxGeometry x="190" y="160" width="40" height="40" as="geometry" />
        </mxCell>
        <mxCell id="MmrI5GjskiHCByYGOdrg-39" value="1b" style="rounded=1;whiteSpace=wrap;html=1;fillColor=#fad9d5;strokeColor=#ae4132;fontSize=13;fontFamily=Courier New;" parent="WIyWlLk6GJQsqaUBKTNV-1" vertex="1">
          <mxGeometry x="190" y="360" width="40" height="40" as="geometry" />
        </mxCell>
        <mxCell id="MmrI5GjskiHCByYGOdrg-42" value="2" style="rounded=1;whiteSpace=wrap;html=1;fillColor=#fad9d5;strokeColor=#ae4132;fontSize=13;fontFamily=Courier New;" parent="WIyWlLk6GJQsqaUBKTNV-1" vertex="1">
          <mxGeometry x="470" y="240" width="40" height="40" as="geometry" />
        </mxCell>
        <mxCell id="MmrI5GjskiHCByYGOdrg-43" value="3" style="rounded=1;whiteSpace=wrap;html=1;fillColor=#fad9d5;strokeColor=#ae4132;fontSize=13;fontFamily=Courier New;" parent="WIyWlLk6GJQsqaUBKTNV-1" vertex="1">
          <mxGeometry x="800" y="440" width="40" height="40" as="geometry" />
        </mxCell>
        <mxCell id="MmrI5GjskiHCByYGOdrg-55" style="edgeStyle=orthogonalEdgeStyle;rounded=0;orthogonalLoop=1;jettySize=auto;html=1;exitX=1;exitY=0.5;exitDx=0;exitDy=0;entryX=1;entryY=0.5;entryDx=0;entryDy=0;endArrow=classic;endFill=1;fontSize=13;fontFamily=Courier New;" parent="WIyWlLk6GJQsqaUBKTNV-1" source="MmrI5GjskiHCByYGOdrg-44" target="MmrI5GjskiHCByYGOdrg-44" edge="1">
          <mxGeometry relative="1" as="geometry" />
        </mxCell>
        <mxCell id="MmrI5GjskiHCByYGOdrg-57" style="edgeStyle=orthogonalEdgeStyle;rounded=0;orthogonalLoop=1;jettySize=auto;html=1;exitX=1;exitY=0.75;exitDx=0;exitDy=0;entryX=0;entryY=0.75;entryDx=0;entryDy=0;startArrow=classic;startFill=1;fontSize=13;fontFamily=Courier New;" parent="WIyWlLk6GJQsqaUBKTNV-1" edge="1">
          <mxGeometry relative="1" as="geometry">
            <mxPoint x="159" y="755" as="sourcePoint" />
            <mxPoint x="359" y="755" as="targetPoint" />
          </mxGeometry>
        </mxCell>
        <mxCell id="DuDHuZvFWw33TkAiY8Pj-11" value="command IO" style="edgeLabel;html=1;align=center;verticalAlign=middle;resizable=0;points=[];fontSize=13;fontFamily=Courier New;" vertex="1" connectable="0" parent="MmrI5GjskiHCByYGOdrg-57">
          <mxGeometry x="-0.0467" relative="1" as="geometry">
            <mxPoint as="offset" />
          </mxGeometry>
        </mxCell>
        <mxCell id="MmrI5GjskiHCByYGOdrg-44" value="mdb attach" style="rounded=1;whiteSpace=wrap;html=1;fontSize=13;fontFamily=Courier New;fillColor=#dae8fc;strokeColor=#6c8ebf;" parent="WIyWlLk6GJQsqaUBKTNV-1" vertex="1">
          <mxGeometry x="40" y="710" width="120" height="60" as="geometry" />
        </mxCell>
        <mxCell id="MmrI5GjskiHCByYGOdrg-56" style="edgeStyle=orthogonalEdgeStyle;rounded=0;orthogonalLoop=1;jettySize=auto;html=1;exitX=0;exitY=0.25;exitDx=0;exitDy=0;entryX=1;entryY=0.25;entryDx=0;entryDy=0;startArrow=classic;startFill=1;fontSize=13;fontFamily=Courier New;" parent="WIyWlLk6GJQsqaUBKTNV-1" source="MmrI5GjskiHCByYGOdrg-47" target="MmrI5GjskiHCByYGOdrg-44" edge="1">
          <mxGeometry relative="1" as="geometry" />
        </mxCell>
        <mxCell id="DuDHuZvFWw33TkAiY8Pj-10" value="TLS/SSL" style="edgeLabel;html=1;align=center;verticalAlign=middle;resizable=0;points=[];fontSize=13;fontFamily=Courier New;" vertex="1" connectable="0" parent="MmrI5GjskiHCByYGOdrg-56">
          <mxGeometry x="0.03" y="-2" relative="1" as="geometry">
            <mxPoint as="offset" />
          </mxGeometry>
        </mxCell>
        <mxCell id="MmrI5GjskiHCByYGOdrg-58" style="edgeStyle=orthogonalEdgeStyle;rounded=0;orthogonalLoop=1;jettySize=auto;html=1;exitX=1;exitY=0.75;exitDx=0;exitDy=0;entryX=0;entryY=0.5;entryDx=0;entryDy=0;fontSize=13;fontFamily=Courier New;" parent="WIyWlLk6GJQsqaUBKTNV-1" source="MmrI5GjskiHCByYGOdrg-47" target="MmrI5GjskiHCByYGOdrg-51" edge="1">
          <mxGeometry relative="1" as="geometry">
            <Array as="points">
              <mxPoint x="560" y="740" />
            </Array>
          </mxGeometry>
        </mxCell>
        <mxCell id="MmrI5GjskiHCByYGOdrg-59" style="edgeStyle=orthogonalEdgeStyle;rounded=0;orthogonalLoop=1;jettySize=auto;html=1;exitX=1;exitY=0.75;exitDx=0;exitDy=0;entryX=0;entryY=0.5;entryDx=0;entryDy=0;fontSize=13;fontFamily=Courier New;" parent="WIyWlLk6GJQsqaUBKTNV-1" source="MmrI5GjskiHCByYGOdrg-47" target="MmrI5GjskiHCByYGOdrg-49" edge="1">
          <mxGeometry relative="1" as="geometry">
            <Array as="points">
              <mxPoint x="560" y="740" />
              <mxPoint x="800" y="740" />
              <mxPoint x="800" y="670" />
            </Array>
          </mxGeometry>
        </mxCell>
        <mxCell id="MmrI5GjskiHCByYGOdrg-60" style="edgeStyle=orthogonalEdgeStyle;rounded=0;orthogonalLoop=1;jettySize=auto;html=1;exitX=1;exitY=0.5;exitDx=0;exitDy=0;entryX=0;entryY=0.5;entryDx=0;entryDy=0;startArrow=classic;startFill=1;fontSize=13;fontFamily=Courier New;" parent="WIyWlLk6GJQsqaUBKTNV-1" source="MmrI5GjskiHCByYGOdrg-47" target="MmrI5GjskiHCByYGOdrg-53" edge="1">
          <mxGeometry relative="1" as="geometry">
            <Array as="points">
              <mxPoint x="800" y="740" />
              <mxPoint x="800" y="880" />
            </Array>
          </mxGeometry>
        </mxCell>
        <mxCell id="MmrI5GjskiHCByYGOdrg-63" value="command IO" style="edgeLabel;html=1;align=center;verticalAlign=middle;resizable=0;points=[];fontSize=13;fontFamily=Courier New;" parent="MmrI5GjskiHCByYGOdrg-60" vertex="1" connectable="0">
          <mxGeometry x="-0.6404" relative="1" as="geometry">
            <mxPoint x="40" as="offset" />
          </mxGeometry>
        </mxCell>
        <mxCell id="MmrI5GjskiHCByYGOdrg-47" value="mdb exchange server" style="rounded=1;whiteSpace=wrap;html=1;fontSize=13;fontFamily=Courier New;fillColor=#d5e8d4;strokeColor=#82b366;" parent="WIyWlLk6GJQsqaUBKTNV-1" vertex="1">
          <mxGeometry x="360" y="710" width="200" height="60" as="geometry" />
        </mxCell>
        <mxCell id="MmrI5GjskiHCByYGOdrg-61" value="1" style="rounded=1;whiteSpace=wrap;html=1;fillColor=#fad9d5;strokeColor=#ae4132;fontSize=13;fontFamily=Courier New;" parent="WIyWlLk6GJQsqaUBKTNV-1" vertex="1">
          <mxGeometry x="240" y="670" width="40" height="40" as="geometry" />
        </mxCell>
        <mxCell id="MmrI5GjskiHCByYGOdrg-62" value="2" style="rounded=1;whiteSpace=wrap;html=1;fillColor=#fad9d5;strokeColor=#ae4132;fontSize=13;fontFamily=Courier New;" parent="WIyWlLk6GJQsqaUBKTNV-1" vertex="1">
          <mxGeometry x="200" y="780" width="40" height="40" as="geometry" />
        </mxCell>
        <mxCell id="MmrI5GjskiHCByYGOdrg-67" value="5" style="rounded=1;whiteSpace=wrap;html=1;fillColor=#fad9d5;strokeColor=#ae4132;fontSize=13;fontFamily=Courier New;" parent="WIyWlLk6GJQsqaUBKTNV-1" vertex="1">
          <mxGeometry x="280" y="780" width="40" height="40" as="geometry" />
        </mxCell>
        <mxCell id="MmrI5GjskiHCByYGOdrg-68" value="3" style="rounded=1;whiteSpace=wrap;html=1;fillColor=#fad9d5;strokeColor=#ae4132;fontSize=13;fontFamily=Courier New;" parent="WIyWlLk6GJQsqaUBKTNV-1" vertex="1">
          <mxGeometry x="660" y="660" width="40" height="40" as="geometry" />
        </mxCell>
        <mxCell id="MmrI5GjskiHCByYGOdrg-69" value="4" style="rounded=1;whiteSpace=wrap;html=1;fillColor=#fad9d5;strokeColor=#ae4132;fontSize=13;fontFamily=Courier New;" parent="WIyWlLk6GJQsqaUBKTNV-1" vertex="1">
          <mxGeometry x="660" y="780" width="40" height="40" as="geometry" />
        </mxCell>
        <mxCell id="6Gi6RKEsuWFXYcKo0wfV-0" value="4" style="rounded=1;whiteSpace=wrap;html=1;fillColor=#fad9d5;strokeColor=#ae4132;fontSize=13;fontFamily=Courier New;" parent="WIyWlLk6GJQsqaUBKTNV-1" vertex="1">
          <mxGeometry x="780" y="280" width="40" height="40" as="geometry" />
        </mxCell>
        <mxCell id="DuDHuZvFWw33TkAiY8Pj-1" style="edgeStyle=orthogonalEdgeStyle;rounded=0;orthogonalLoop=1;jettySize=auto;html=1;entryX=1;entryY=0.25;entryDx=0;entryDy=0;fontSize=13;fontFamily=Courier New;" edge="1" parent="WIyWlLk6GJQsqaUBKTNV-1" target="MmrI5GjskiHCByYGOdrg-8">
          <mxGeometry relative="1" as="geometry">
            <mxPoint x="750" y="110" as="sourcePoint" />
            <Array as="points">
              <mxPoint x="750" y="110" />
              <mxPoint x="770" y="110" />
              <mxPoint x="770" y="465" />
            </Array>
          </mxGeometry>
        </mxCell>
        <mxCell id="DuDHuZvFWw33TkAiY8Pj-2" style="edgeStyle=orthogonalEdgeStyle;rounded=0;orthogonalLoop=1;jettySize=auto;html=1;exitX=1;exitY=0.25;exitDx=0;exitDy=0;entryX=1;entryY=0.25;entryDx=0;entryDy=0;fontSize=13;fontFamily=Courier New;" edge="1" parent="WIyWlLk6GJQsqaUBKTNV-1" source="MmrI5GjskiHCByYGOdrg-11" target="MmrI5GjskiHCByYGOdrg-8">
          <mxGeometry relative="1" as="geometry">
            <mxPoint x="750" y="470" as="targetPoint" />
            <Array as="points">
              <mxPoint x="770" y="185" />
              <mxPoint x="770" y="465" />
            </Array>
          </mxGeometry>
        </mxCell>
        <mxCell id="DuDHuZvFWw33TkAiY8Pj-9" value="IP address/port/rank" style="edgeLabel;html=1;align=center;verticalAlign=middle;resizable=0;points=[];fontSize=13;fontFamily=Courier New;" vertex="1" connectable="0" parent="DuDHuZvFWw33TkAiY8Pj-2">
          <mxGeometry x="-0.3571" y="1" relative="1" as="geometry">
            <mxPoint as="offset" />
          </mxGeometry>
        </mxCell>
        <mxCell id="DuDHuZvFWw33TkAiY8Pj-3" style="edgeStyle=orthogonalEdgeStyle;rounded=0;orthogonalLoop=1;jettySize=auto;html=1;exitX=1;exitY=0.25;exitDx=0;exitDy=0;entryX=1;entryY=0.25;entryDx=0;entryDy=0;fontSize=13;fontFamily=Courier New;" edge="1" parent="WIyWlLk6GJQsqaUBKTNV-1" source="MmrI5GjskiHCByYGOdrg-13" target="MmrI5GjskiHCByYGOdrg-8">
          <mxGeometry relative="1" as="geometry" />
        </mxCell>
        <mxCell id="DuDHuZvFWw33TkAiY8Pj-4" style="edgeStyle=orthogonalEdgeStyle;rounded=0;orthogonalLoop=1;jettySize=auto;html=1;exitX=1;exitY=0.75;exitDx=0;exitDy=0;entryX=1;entryY=0.75;entryDx=0;entryDy=0;startArrow=classic;startFill=1;fontSize=13;fontFamily=Courier New;" edge="1" parent="WIyWlLk6GJQsqaUBKTNV-1" source="MmrI5GjskiHCByYGOdrg-10" target="MmrI5GjskiHCByYGOdrg-8">
          <mxGeometry relative="1" as="geometry">
            <Array as="points">
              <mxPoint x="870" y="145" />
              <mxPoint x="870" y="495" />
            </Array>
          </mxGeometry>
        </mxCell>
        <mxCell id="DuDHuZvFWw33TkAiY8Pj-6" style="edgeStyle=orthogonalEdgeStyle;rounded=0;orthogonalLoop=1;jettySize=auto;html=1;exitX=1;exitY=0.75;exitDx=0;exitDy=0;entryX=1;entryY=0.75;entryDx=0;entryDy=0;startArrow=classic;startFill=1;fontSize=13;fontFamily=Courier New;" edge="1" parent="WIyWlLk6GJQsqaUBKTNV-1" source="MmrI5GjskiHCByYGOdrg-11" target="MmrI5GjskiHCByYGOdrg-8">
          <mxGeometry relative="1" as="geometry">
            <Array as="points">
              <mxPoint x="870" y="215" />
              <mxPoint x="870" y="495" />
            </Array>
          </mxGeometry>
        </mxCell>
        <mxCell id="DuDHuZvFWw33TkAiY8Pj-8" value="TLS/SSL" style="edgeLabel;html=1;align=center;verticalAlign=middle;resizable=0;points=[];fontSize=13;fontFamily=Courier New;" vertex="1" connectable="0" parent="DuDHuZvFWw33TkAiY8Pj-6">
          <mxGeometry x="0.7673" y="-2" relative="1" as="geometry">
            <mxPoint as="offset" />
          </mxGeometry>
        </mxCell>
        <mxCell id="MmrI5GjskiHCByYGOdrg-10" value="mdb server [gdb proc 0]" style="rounded=1;whiteSpace=wrap;html=1;fillColor=#fff2cc;strokeColor=#d6b656;fontSize=13;fontFamily=Courier New;" parent="WIyWlLk6GJQsqaUBKTNV-1" vertex="1">
          <mxGeometry x="550" y="100" width="200" height="60" as="geometry" />
        </mxCell>
        <mxCell id="MmrI5GjskiHCByYGOdrg-11" value="mdb server [gdb proc 1]" style="rounded=1;whiteSpace=wrap;html=1;fillColor=#fff2cc;strokeColor=#d6b656;fontSize=13;fontFamily=Courier New;" parent="WIyWlLk6GJQsqaUBKTNV-1" vertex="1">
          <mxGeometry x="550" y="170" width="200" height="60" as="geometry" />
        </mxCell>
        <mxCell id="MmrI5GjskiHCByYGOdrg-13" value="mdb server [gdb proc n]" style="rounded=1;whiteSpace=wrap;html=1;fillColor=#fff2cc;strokeColor=#d6b656;fontSize=13;fontFamily=Courier New;" parent="WIyWlLk6GJQsqaUBKTNV-1" vertex="1">
          <mxGeometry x="550" y="310" width="200" height="60" as="geometry" />
        </mxCell>
        <mxCell id="MmrI5GjskiHCByYGOdrg-14" value="" style="endArrow=none;dashed=1;html=1;strokeWidth=3;rounded=0;dashPattern=1 4;fontSize=13;fontFamily=Courier New;" parent="WIyWlLk6GJQsqaUBKTNV-1" edge="1">
          <mxGeometry width="50" height="50" relative="1" as="geometry">
            <mxPoint x="649.5" y="292" as="sourcePoint" />
            <mxPoint x="649.5" y="252" as="targetPoint" />
          </mxGeometry>
        </mxCell>
        <mxCell id="MmrI5GjskiHCByYGOdrg-49" value="mdb server [gdb proc 0]" style="rounded=1;whiteSpace=wrap;html=1;fontSize=13;fontFamily=Courier New;fillColor=#fff2cc;strokeColor=#d6b656;" parent="WIyWlLk6GJQsqaUBKTNV-1" vertex="1">
          <mxGeometry x="880" y="640" width="200" height="60" as="geometry" />
        </mxCell>
        <mxCell id="MmrI5GjskiHCByYGOdrg-51" value="mdb server [gdb proc 1]" style="rounded=1;whiteSpace=wrap;html=1;fontSize=13;fontFamily=Courier New;fillColor=#fff2cc;strokeColor=#d6b656;" parent="WIyWlLk6GJQsqaUBKTNV-1" vertex="1">
          <mxGeometry x="880" y="710" width="200" height="60" as="geometry" />
        </mxCell>
        <mxCell id="MmrI5GjskiHCByYGOdrg-53" value="mdb server [gdb proc n]" style="rounded=1;whiteSpace=wrap;html=1;fontSize=13;fontFamily=Courier New;fillColor=#fff2cc;strokeColor=#d6b656;" parent="WIyWlLk6GJQsqaUBKTNV-1" vertex="1">
          <mxGeometry x="880" y="850" width="200" height="60" as="geometry" />
        </mxCell>
        <mxCell id="MmrI5GjskiHCByYGOdrg-54" value="" style="endArrow=none;dashed=1;html=1;strokeWidth=3;rounded=0;dashPattern=1 4;fontSize=13;fontFamily=Courier New;" parent="WIyWlLk6GJQsqaUBKTNV-1" edge="1">
          <mxGeometry width="50" height="50" relative="1" as="geometry">
            <mxPoint x="979.5" y="832" as="sourcePoint" />
            <mxPoint x="979.5" y="792" as="targetPoint" />
          </mxGeometry>
        </mxCell>
      </root>
    </mxGraphModel>
  </diagram>
</mxfile>
